<svg xmlns="http://www.w3.org/2000/svg" width="24" height="25" viewBox="0 0 24 25" fill="none">
  <path d="M16 8.58002H20V9.58002H16V8.58002ZM4 8.58002H13V9.58002H4V8.58002Z" fill="#7E746D"/>
  <path d="M14.5 11.08C15.6046 11.08 16.5 10.1846 16.5 9.08002C16.5 7.97545 15.6046 7.08002 14.5 7.08002C13.3954 7.08002 12.5 7.97545 12.5 9.08002C12.5 10.1846 13.3954 11.08 14.5 11.08Z" stroke="#7E746D" stroke-miterlimit="10"/>
  <path d="M8 16.58H4V15.58H8V16.58ZM20 16.58H11V15.58H20V16.58Z" fill="#7E746D"/>
  <path d="M9.5 18.08C10.6046 18.08 11.5 17.1846 11.5 16.08C11.5 14.9754 10.6046 14.08 9.5 14.08C8.39543 14.08 7.5 14.9754 7.5 16.08C7.5 17.1846 8.39543 18.08 9.5 18.08Z" stroke="#7E746D" stroke-miterlimit="10"/>
</svg>