<svg width="121" height="93" viewBox="0 0 121 93" fill="none" xmlns="http://www.w3.org/2000/svg">
<g clip-path="url(#clip0_1_692)">
<path d="M0.920013 0.44043H120.92V92.4404H0.920013V0.44043Z" fill="#8E847D"/>
<path d="M42.92 0.44043H48.92V92.4404H42.92V0.44043Z" fill="#333333"/>
<path d="M0.920013 86.7278V80.7228L45.128 79.0068L120.92 77.4738V83.4738L45.305 85.0038L0.920013 86.7278ZM0.920013 50.6028V47.6008L46.233 46.4758L46.308 49.4758L0.920013 50.6028ZM0.920013 14.0008V10.9988L120.92 7.9668V10.9688L0.920013 14.0008Z" fill="#333333"/>
<path d="M8.91901 92.4404L6.92801 0.44043H9.92901L11.921 92.4404H8.91901ZM74.92 11.4404H75.92V92.4404H74.92V11.4404ZM77.92 11.4404H78.92V92.4404H77.92V11.4404ZM80.92 11.4404H81.92V92.4404H80.92V11.4404ZM83.92 11.4404H84.92V92.4404H83.92V11.4404Z" fill="#333333"/>
<path d="M74.92 41.4404H83.92V42.4404H74.92V41.4404ZM74.92 70.4404H83.92V71.4404H74.92V70.4404ZM60.92 34.4404C59.0445 34.4594 57.2534 35.2227 55.9407 36.5622C54.6279 37.9018 53.9011 39.708 53.92 41.5834C53.92 46.3454 60.92 54.4404 60.92 54.4404C60.92 54.4404 67.92 46.3454 67.92 41.5834C67.9389 39.708 67.2121 37.9018 65.8993 36.5622C64.5866 35.2227 62.7955 34.4594 60.92 34.4404ZM60.92 44.4404C60.3267 44.4404 59.7466 44.2645 59.2533 43.9348C58.76 43.6052 58.3754 43.1367 58.1484 42.5885C57.9213 42.0403 57.8619 41.4371 57.9777 40.8552C58.0934 40.2732 58.3791 39.7387 58.7987 39.3191C59.2182 38.8996 59.7528 38.6138 60.3347 38.4981C60.9167 38.3823 61.5199 38.4417 62.0681 38.6688C62.6162 38.8959 63.0848 39.2804 63.4144 39.7737C63.7441 40.2671 63.92 40.8471 63.92 41.4404C63.92 42.2361 63.6039 42.9991 63.0413 43.5617C62.4787 44.1244 61.7157 44.4404 60.92 44.4404Z" fill="#333333"/>
</g>
<defs>
<clipPath id="clip0_1_692">
<rect width="120" height="92" fill="white" transform="translate(0.920013 0.44043)"/>
</clipPath>
</defs>
</svg>
