<svg width="92" height="93" viewBox="0 0 92 93" fill="none" xmlns="http://www.w3.org/2000/svg">
<g clip-path="url(#clip0_1_682)">
<path d="M91 1.44043V91.4404H1V1.44043H91ZM92 0.44043H0V92.4404H92V0.44043Z" fill="white"/>
<path d="M14.445 56.4417L13.305 53.9017H9.68697L9.65097 53.9997C9.33097 54.7377 8.98797 55.5827 8.68097 56.3427H7.33197L10.25 50.0627C10.728 49.0327 11.048 48.3107 11.317 47.5997L11.637 47.5127L14.58 53.8287C14.925 54.5887 15.402 55.5837 15.794 56.3427L14.445 56.4417ZM12.851 52.8957L11.49 49.8437L10.141 52.8957H12.851ZM23.645 56.4297L21.438 52.9577H20.1V54.5777C20.1 55.0547 20.111 55.9997 20.149 56.3427H18.788C18.849 55.7537 18.873 54.1827 18.873 53.3867V50.6767C18.873 49.8917 18.849 48.3097 18.788 47.7207C19.229 47.7207 20.479 47.6727 21.044 47.6607C23.203 47.6237 24.391 48.8137 24.355 50.1737C24.3494 50.7258 24.1731 51.2627 23.8503 51.7107C23.5275 52.1586 23.074 52.4957 22.552 52.6757L23.804 54.5157C24.134 54.9817 24.81 55.9257 25.091 56.2687L23.645 56.4297ZM20.101 51.9407H21.339C21.562 51.961 21.7868 51.9346 21.999 51.863C22.2112 51.7914 22.4061 51.6762 22.5712 51.525C22.7364 51.3737 22.8681 51.1896 22.9579 50.9844C23.0478 50.7793 23.0938 50.5576 23.093 50.3337C23.093 49.2787 22.455 48.7287 21.168 48.7287C20.775 48.7287 20.432 48.7397 20.112 48.7637C20.102 49.0097 20.102 49.2917 20.102 49.4747L20.101 51.9407ZM34.243 48.7637C33.298 48.7517 32.477 48.7397 31.385 48.7397C31.372 48.9977 31.372 49.3157 31.372 49.5117V54.5777C31.372 55.0547 31.385 55.9997 31.422 56.3427H30.062C30.122 55.7537 30.146 54.1837 30.146 53.3877V50.7267C30.146 50.2237 30.135 49.4267 30.11 48.7397C29.018 48.7397 28.16 48.7517 27.216 48.7637C27.2518 48.3928 27.2681 48.0203 27.265 47.6477C29.6233 47.73 31.9837 47.73 34.342 47.6477C34.2824 48.0169 34.2493 48.3898 34.243 48.7637ZM8.65597 70.2207C8.71897 69.6357 8.74197 68.0747 8.74197 67.2827V64.5867C8.74197 63.8067 8.71897 62.2347 8.65597 61.6487C9.11074 61.6547 9.56549 61.6347 10.018 61.5887C9.98097 61.9417 9.96897 62.9167 9.96897 63.3927V68.4657C9.96897 68.9277 9.98097 69.8807 10.018 70.2217L8.65597 70.2207ZM21.67 63.3917L21.585 68.5387C21.585 69.0147 21.573 70.0027 21.609 70.3437L21.291 70.4287L15.661 64.0017V68.4647C15.661 68.9407 15.673 69.8807 15.711 70.2207H14.361C14.435 69.6357 14.496 68.0747 14.508 67.2817L14.558 64.3447C14.57 63.5637 14.57 62.1117 14.508 61.5267L14.84 61.4407L20.519 67.9647V64.5867C20.519 63.8067 20.494 62.2347 20.421 61.6487C20.8714 61.6541 21.3218 61.6341 21.77 61.5887C21.72 61.9417 21.683 62.9157 21.67 63.3917ZM27.633 70.4407C26.7787 70.417 25.9457 70.1687 25.218 69.7207L25.291 68.4287C25.9743 68.9893 26.8227 69.3104 27.706 69.3427C28.626 69.3427 29.276 68.8927 29.276 67.9887C29.276 66.2837 25.561 66.1977 25.561 63.9527C25.5673 63.6078 25.6431 63.2677 25.784 62.9528C25.9249 62.6379 26.1279 62.3547 26.3809 62.1202C26.6338 61.8856 26.9315 61.7045 27.2561 61.5878C27.5807 61.471 27.9256 61.421 28.27 61.4407C28.9904 61.4359 29.694 61.6581 30.281 62.0757L29.876 63.1487C29.4014 62.7785 28.8233 62.5653 28.222 62.5387C27.325 62.5387 26.786 63.0157 26.786 63.7837C26.786 65.3077 30.49 65.3807 30.49 67.8197C30.4927 68.185 30.4188 68.5469 30.2729 68.8819C30.1271 69.2169 29.9127 69.5176 29.6435 69.7646C29.3742 70.0116 29.0562 70.1994 28.7099 70.3158C28.3636 70.4323 27.9967 70.4748 27.633 70.4407ZM40.229 62.6847C39.2767 62.6701 38.3243 62.6625 37.372 62.6617C37.358 62.9167 37.358 63.2337 37.358 63.4287V68.4657C37.358 68.9407 37.371 69.8797 37.408 70.2217H36.048C36.108 69.6357 36.132 68.0747 36.132 67.2817V64.6367C36.132 64.1367 36.121 63.3437 36.095 62.6617C35.005 62.6617 34.145 62.6717 33.202 62.6847C33.2377 62.3161 33.2541 61.946 33.251 61.5757C34.367 61.6117 35.41 61.6357 36.746 61.6357C38.082 61.6357 39.198 61.6117 40.327 61.5757C40.2682 61.9426 40.2354 62.3132 40.229 62.6847ZM43.554 70.2207C43.617 69.6357 43.641 68.0747 43.641 67.2827V64.5867C43.641 63.8067 43.617 62.2347 43.554 61.6487C44.0087 61.6547 44.4635 61.6347 44.916 61.5887C44.879 61.9417 44.867 62.9167 44.867 63.3927V68.4657C44.867 68.9277 44.879 69.8807 44.916 70.2217L43.554 70.2207ZM55.097 62.6847C54.152 62.6717 53.331 62.6617 52.239 62.6617C52.226 62.9167 52.226 63.2337 52.226 63.4287V68.4657C52.226 68.9407 52.239 69.8797 52.276 70.2217H50.916C50.976 69.6357 51 68.0747 51 67.2817V64.6367C51 64.1367 50.988 63.3437 50.964 62.6617C49.872 62.6617 49.014 62.6717 48.07 62.6847C48.1057 62.3161 48.1221 61.946 48.119 61.5757C49.234 61.6117 50.278 61.6357 51.614 61.6357C52.95 61.6357 54.066 61.6117 55.195 61.5757C55.1357 61.9425 55.103 62.3132 55.097 62.6847ZM65.915 61.6607L63.168 67.9057C62.715 68.9407 62.42 69.6477 62.175 70.3547L61.856 70.4407L59.11 64.1727C58.745 63.3304 58.3602 62.4969 57.956 61.6727L59.306 61.5757L61.991 67.9777L63.647 63.9907C63.941 63.2707 64.261 62.4297 64.543 61.6607H65.915ZM75.164 62.6847C74.219 62.6717 73.399 62.6617 72.307 62.6617C72.294 62.9167 72.294 63.2337 72.294 63.4287V68.4657C72.294 68.9407 72.307 69.8797 72.344 70.2217H70.983C71.044 69.6357 71.068 68.0747 71.068 67.2817V64.6367C71.068 64.1367 71.056 63.3437 71.031 62.6617C69.94 62.6617 69.081 62.6717 68.138 62.6847C68.1734 62.3161 68.1894 61.9459 68.186 61.5757C69.302 61.6117 70.346 61.6357 71.682 61.6357C73.018 61.6357 74.133 61.6117 75.262 61.5757C75.203 61.9426 75.1702 62.3132 75.164 62.6847ZM83.826 70.2707C83.089 70.2207 82.182 70.2087 81.311 70.2087C80.44 70.2087 79.52 70.2217 78.797 70.2697C78.857 69.6847 78.883 68.1117 78.883 67.3317V64.5137C78.883 63.7227 78.858 62.1607 78.797 61.5757C80.419 61.6554 82.0439 61.6554 83.666 61.5757C83.6064 61.9345 83.573 62.2971 83.566 62.6607C82.844 62.6487 82.096 62.6367 81.225 62.6367C80.857 62.6367 80.489 62.6367 80.133 62.6487C80.109 62.8687 80.109 63.1847 80.109 63.3687V65.2097H83.089C83.063 65.5424 83.0507 65.876 83.052 66.2097H80.11V68.4657C80.11 68.6477 80.11 68.9777 80.134 69.1957C80.489 69.1957 80.858 69.2087 81.226 69.2087C82.219 69.2087 83.078 69.1967 83.911 69.1727C83.8618 69.5368 83.8335 69.9034 83.826 70.2707ZM15.034 83.6207C14.2361 84.2568 13.2454 84.6024 12.225 84.6007C11.6589 84.6059 11.0975 84.4981 10.5737 84.2835C10.0499 84.0689 9.57416 83.7518 9.17449 83.3509C8.77481 82.9501 8.45921 82.4734 8.24619 81.9489C8.03317 81.4245 7.92702 80.8627 7.93397 80.2967C7.90773 79.6852 8.00515 79.0746 8.2204 78.5016C8.43565 77.9286 8.7643 77.4049 9.18668 76.9619C9.60906 76.5189 10.1165 76.1657 10.6786 75.9233C11.2407 75.681 11.8459 75.5546 12.458 75.5517C13.3655 75.5521 14.2526 75.8207 15.008 76.3237L14.665 77.4517C14.0143 76.9406 13.2123 76.6603 12.385 76.6547C11.9495 76.6553 11.5187 76.7448 11.119 76.9178C10.7193 77.0907 10.3591 77.3434 10.0604 77.6604C9.76177 77.9774 9.53098 78.352 9.38217 78.7613C9.23336 79.1706 9.16966 79.6059 9.19497 80.0407C9.19497 82.2837 10.569 83.4977 12.297 83.4977C12.8265 83.4924 13.3496 83.38 13.8345 83.1672C14.3195 82.9545 14.7564 82.6458 15.119 82.2597L15.034 83.6207ZM24.418 84.3807C24.491 83.7907 24.516 82.2217 24.516 81.4237V80.3957H20.016V82.6157C20.016 83.0807 20.026 84.0387 20.064 84.3817H18.702C18.763 83.7917 18.789 82.2217 18.789 81.4247V78.7147C18.789 77.9297 18.763 76.3487 18.702 75.7597C19.1568 75.7657 19.6116 75.745 20.064 75.6977C20.027 76.0537 20.015 77.0347 20.015 77.5137V79.3897H24.516V78.7147C24.516 77.9297 24.491 76.3487 24.418 75.7597C24.8808 75.7653 25.3435 75.7446 25.804 75.6977C25.754 76.0537 25.742 77.0347 25.742 77.5137V82.6147C25.742 83.0807 25.754 84.0387 25.803 84.3807H24.418ZM30.196 84.3807C30.259 83.7907 30.282 82.2217 30.282 81.4237V78.7137C30.282 77.9287 30.259 76.3487 30.196 75.7587C30.6508 75.7647 31.1056 75.744 31.558 75.6967C31.522 76.0527 31.508 77.0337 31.508 77.5127V82.6147C31.508 83.0797 31.522 84.0377 31.558 84.3807H30.196ZM42.34 83.6207C41.5417 84.2568 40.5507 84.6024 39.53 84.6007C38.9639 84.6059 38.4025 84.4981 37.8787 84.2835C37.3549 84.0689 36.8792 83.7518 36.4795 83.3509C36.0798 82.9501 35.7642 82.4734 35.5512 81.9489C35.3382 81.4245 35.232 80.8627 35.239 80.2967C35.2127 79.6851 35.3102 79.0745 35.5255 78.5014C35.7408 77.9283 36.0695 77.4046 36.492 76.9616C36.9145 76.5185 37.4221 76.1653 37.9843 75.9231C38.5465 75.6808 39.1518 75.5545 39.764 75.5517C40.6715 75.552 41.5587 75.8206 42.314 76.3237L41.97 77.4517C41.3191 76.9404 40.5167 76.66 39.689 76.6547C39.2537 76.6556 38.8232 76.7453 38.4238 76.9183C38.0244 77.0913 37.6645 77.3439 37.3661 77.6608C37.0677 77.9776 36.8371 78.352 36.6883 78.761C36.5396 79.1701 36.4758 79.6052 36.501 80.0397C36.501 82.2827 37.875 83.4967 39.603 83.4967C40.1324 83.4913 40.6552 83.3788 41.14 83.166C41.6248 82.9533 42.0616 82.6446 42.424 82.2587L42.34 83.6207ZM51.98 84.4797L50.84 81.9397H47.223L47.187 82.0397C46.867 82.7747 46.524 83.6197 46.217 84.3817H44.868L47.787 78.1017C48.265 77.0717 48.584 76.3487 48.853 75.6377L49.173 75.5507L52.116 81.8667C52.461 82.6277 52.938 83.6207 53.33 84.3817L51.98 84.4797ZM50.387 80.9347L49.026 77.8807L47.677 80.9347H50.387ZM61.93 80.3327C62.419 80.3267 62.661 80.3147 63.2 80.2867C63.139 80.7517 63.157 81.9527 63.157 82.7507V83.6937C62.2609 84.313 61.1909 84.6311 60.102 84.6017C58.943 84.6175 57.8251 84.1732 56.993 83.3663C56.161 82.5594 55.6827 81.4556 55.663 80.2967C55.6437 79.6745 55.7508 79.0548 55.9778 78.4752C56.2048 77.8955 56.5471 77.368 56.9838 76.9243C57.4205 76.4807 57.9426 76.1302 58.5186 75.8941C59.0946 75.658 59.7125 75.5412 60.335 75.5507C61.2965 75.5514 62.2391 75.8186 63.058 76.3227L62.714 77.4507C61.9986 76.9373 61.1415 76.6588 60.261 76.6537C59.8139 76.636 59.3681 76.7119 58.9521 76.8765C58.5361 77.0411 58.159 77.2908 57.8451 77.6096C57.5311 77.9283 57.2872 78.3091 57.1289 78.7276C56.9707 79.1461 56.9015 79.593 56.926 80.0397C56.8844 80.4865 56.9382 80.937 57.084 81.3613C57.2297 81.7857 57.464 82.1742 57.7714 82.5011C58.0787 82.828 58.452 83.0859 58.8666 83.2575C59.2812 83.4291 59.7275 83.5107 60.176 83.4967C60.7924 83.5205 61.4047 83.3856 61.954 83.1047V81.6107C61.954 81.4257 61.954 81.0957 61.93 80.8747V80.3327ZM75.09 79.8557C75.1279 80.462 75.0418 81.0697 74.8369 81.6416C74.632 82.2135 74.3126 82.7375 73.8982 83.1818C73.4838 83.626 72.9832 83.981 72.4269 84.2252C71.8707 84.4693 71.2704 84.5974 70.663 84.6017C70.1024 84.605 69.547 84.495 69.03 84.2782C68.513 84.0615 68.0452 83.7425 67.6546 83.3404C67.264 82.9383 66.9586 82.4614 66.757 81.9384C66.5553 81.4153 66.4614 80.8569 66.481 80.2967C66.4429 79.6903 66.5289 79.0825 66.7338 78.5104C66.9387 77.9384 67.2582 77.4142 67.6727 76.97C68.0872 76.5257 68.5881 76.1707 69.1445 75.9266C69.701 75.6826 70.3014 75.5547 70.909 75.5507C71.4694 75.5474 72.0248 75.6574 72.5417 75.8741C73.0586 76.0908 73.5264 76.4097 73.917 76.8117C74.3076 77.2136 74.6129 77.6904 74.8147 78.2133C75.0164 78.7362 75.1104 79.2945 75.091 79.8547M73.828 80.0517C73.828 77.8807 72.502 76.5917 70.773 76.5917C68.959 76.5917 67.745 78.1877 67.745 80.1007C67.745 82.2707 69.068 83.5607 70.798 83.5607C72.614 83.5607 73.828 81.9647 73.828 80.0517Z" fill="white"/>
</g>
<defs>
<clipPath id="clip0_1_682">
<rect width="92" height="92" fill="white" transform="translate(0 0.44043)"/>
</clipPath>
</defs>
</svg>
