<svg width="92" height="93" viewBox="0 0 92 93" fill="none" xmlns="http://www.w3.org/2000/svg">
<g clip-path="url(#clip0_1_755)">
<path d="M0 0.5H92V92.5H0V0.5Z" fill="#B50938"/>
<path d="M14.445 56.501L13.305 53.961H9.68697L9.65097 54.059C9.33097 54.797 8.98797 55.642 8.68097 56.402H7.33197L10.25 50.122C10.728 49.092 11.048 48.37 11.317 47.659L11.637 47.572L14.58 53.888C14.925 54.648 15.402 55.643 15.794 56.402L14.445 56.501ZM12.851 52.955L11.49 49.903L10.141 52.955H12.851ZM23.645 56.489L21.438 53.017H20.1V54.637C20.1 55.114 20.111 56.059 20.149 56.402H18.788C18.849 55.813 18.873 54.242 18.873 53.446V50.736C18.873 49.951 18.849 48.369 18.788 47.78C19.229 47.78 20.479 47.732 21.044 47.72C23.203 47.683 24.391 48.873 24.355 50.233C24.3494 50.7851 24.1731 51.322 23.8503 51.77C23.5275 52.2179 23.074 52.555 22.552 52.735L23.804 54.575C24.134 55.041 24.81 55.985 25.091 56.328L23.645 56.489ZM20.101 52H21.339C21.562 52.0203 21.7868 51.9939 21.999 51.9223C22.2112 51.8507 22.4061 51.7355 22.5712 51.5843C22.7364 51.433 22.8681 51.2489 22.9579 51.0437C23.0478 50.8386 23.0938 50.6169 23.093 50.393C23.093 49.338 22.455 48.788 21.168 48.788C20.775 48.788 20.432 48.799 20.112 48.823C20.102 49.069 20.102 49.351 20.102 49.534L20.101 52ZM34.243 48.823C33.298 48.811 32.477 48.799 31.385 48.799C31.372 49.057 31.372 49.375 31.372 49.571V54.637C31.372 55.114 31.385 56.059 31.422 56.402H30.062C30.122 55.813 30.146 54.243 30.146 53.447V50.786C30.146 50.283 30.135 49.486 30.11 48.799C29.018 48.799 28.16 48.811 27.216 48.823C27.2518 48.4521 27.2681 48.0796 27.265 47.707C29.6233 47.7893 31.9837 47.7893 34.342 47.707C34.2824 48.0762 34.2493 48.4491 34.243 48.823ZM8.65597 70.28C8.71897 69.695 8.74197 68.134 8.74197 67.342V64.646C8.74197 63.866 8.71897 62.294 8.65597 61.708C9.11074 61.714 9.56549 61.694 10.018 61.648C9.98097 62.001 9.96897 62.976 9.96897 63.452V68.525C9.96897 68.987 9.98097 69.94 10.018 70.281L8.65597 70.28ZM21.67 63.451L21.585 68.598C21.585 69.074 21.573 70.062 21.609 70.403L21.291 70.488L15.661 64.061V68.524C15.661 69 15.673 69.94 15.711 70.28H14.361C14.435 69.695 14.496 68.134 14.508 67.341L14.558 64.404C14.57 63.623 14.57 62.171 14.508 61.586L14.84 61.5L20.519 68.024V64.646C20.519 63.866 20.494 62.294 20.421 61.708C20.8714 61.7134 21.3218 61.6934 21.77 61.648C21.72 62.001 21.683 62.975 21.67 63.451ZM27.633 70.5C26.7787 70.4763 25.9457 70.228 25.218 69.78L25.291 68.488C25.9743 69.0486 26.8227 69.3697 27.706 69.402C28.626 69.402 29.276 68.952 29.276 68.048C29.276 66.343 25.561 66.257 25.561 64.012C25.5673 63.6671 25.6431 63.327 25.784 63.0121C25.9249 62.6972 26.1279 62.414 26.3809 62.1794C26.6338 61.9449 26.9315 61.7638 27.2561 61.6471C27.5807 61.5303 27.9256 61.4803 28.27 61.5C28.9904 61.4952 29.694 61.7174 30.281 62.135L29.876 63.208C29.4014 62.8378 28.8233 62.6246 28.222 62.598C27.325 62.598 26.786 63.075 26.786 63.843C26.786 65.367 30.49 65.44 30.49 67.879C30.4927 68.2443 30.4188 68.6062 30.2729 68.9412C30.1271 69.2762 29.9127 69.5769 29.6435 69.8239C29.3742 70.0709 29.0562 70.2587 28.7099 70.3751C28.3636 70.4916 27.9967 70.5341 27.633 70.5ZM40.229 62.744C39.2767 62.7294 38.3243 62.7217 37.372 62.721C37.358 62.976 37.358 63.293 37.358 63.488V68.525C37.358 69 37.371 69.939 37.408 70.281H36.048C36.108 69.695 36.132 68.134 36.132 67.341V64.696C36.132 64.196 36.121 63.403 36.095 62.721C35.005 62.721 34.145 62.731 33.202 62.744C33.2377 62.3754 33.2541 62.0053 33.251 61.635C34.367 61.671 35.41 61.695 36.746 61.695C38.082 61.695 39.198 61.671 40.327 61.635C40.2682 62.0019 40.2354 62.3725 40.229 62.744ZM43.554 70.28C43.617 69.695 43.641 68.134 43.641 67.342V64.646C43.641 63.866 43.617 62.294 43.554 61.708C44.0087 61.714 44.4635 61.694 44.916 61.648C44.879 62.001 44.867 62.976 44.867 63.452V68.525C44.867 68.987 44.879 69.94 44.916 70.281L43.554 70.28ZM55.097 62.744C54.152 62.731 53.331 62.721 52.239 62.721C52.226 62.976 52.226 63.293 52.226 63.488V68.525C52.226 69 52.239 69.939 52.276 70.281H50.916C50.976 69.695 51 68.134 51 67.341V64.696C51 64.196 50.988 63.403 50.964 62.721C49.872 62.721 49.014 62.731 48.07 62.744C48.1057 62.3754 48.1221 62.0053 48.119 61.635C49.234 61.671 50.278 61.695 51.614 61.695C52.95 61.695 54.066 61.671 55.195 61.635C55.1357 62.0018 55.103 62.3725 55.097 62.744ZM65.915 61.72L63.168 67.965C62.715 69 62.42 69.707 62.175 70.414L61.856 70.5L59.11 64.232C58.745 63.3897 58.3602 62.5562 57.956 61.732L59.306 61.635L61.991 68.037L63.647 64.05C63.941 63.33 64.261 62.489 64.543 61.72H65.915ZM75.164 62.744C74.219 62.731 73.399 62.721 72.307 62.721C72.294 62.976 72.294 63.293 72.294 63.488V68.525C72.294 69 72.307 69.939 72.344 70.281H70.983C71.044 69.695 71.068 68.134 71.068 67.341V64.696C71.068 64.196 71.056 63.403 71.031 62.721C69.94 62.721 69.081 62.731 68.138 62.744C68.1734 62.3754 68.1894 62.0052 68.186 61.635C69.302 61.671 70.346 61.695 71.682 61.695C73.018 61.695 74.133 61.671 75.262 61.635C75.203 62.0019 75.1702 62.3725 75.164 62.744ZM83.826 70.33C83.089 70.28 82.182 70.268 81.311 70.268C80.44 70.268 79.52 70.281 78.797 70.329C78.857 69.744 78.883 68.171 78.883 67.391V64.573C78.883 63.782 78.858 62.22 78.797 61.635C80.419 61.7147 82.0439 61.7147 83.666 61.635C83.6064 61.9938 83.573 62.3564 83.566 62.72C82.844 62.708 82.096 62.696 81.225 62.696C80.857 62.696 80.489 62.696 80.133 62.708C80.109 62.928 80.109 63.244 80.109 63.428V65.269H83.089C83.063 65.6017 83.0507 65.9353 83.052 66.269H80.11V68.525C80.11 68.707 80.11 69.037 80.134 69.255C80.489 69.255 80.858 69.268 81.226 69.268C82.219 69.268 83.078 69.256 83.911 69.232C83.8618 69.5961 83.8335 69.9627 83.826 70.33ZM15.034 83.68C14.2361 84.3161 13.2454 84.6617 12.225 84.66C11.6589 84.6652 11.0975 84.5574 10.5737 84.3428C10.0499 84.1282 9.57416 83.8111 9.17449 83.4102C8.77481 83.0094 8.45921 82.5327 8.24619 82.0082C8.03317 81.4838 7.92702 80.922 7.93397 80.356C7.90773 79.7445 8.00515 79.1339 8.2204 78.5609C8.43565 77.9879 8.7643 77.4642 9.18668 77.0212C9.60906 76.5782 10.1165 76.225 10.6786 75.9826C11.2407 75.7403 11.8459 75.6139 12.458 75.611C13.3655 75.6114 14.2526 75.88 15.008 76.383L14.665 77.511C14.0143 76.9999 13.2123 76.7196 12.385 76.714C11.9495 76.7146 11.5187 76.8041 11.119 76.9771C10.7193 77.15 10.3591 77.4027 10.0604 77.7197C9.76177 78.0367 9.53098 78.4113 9.38217 78.8206C9.23336 79.2299 9.16966 79.6652 9.19497 80.1C9.19497 82.343 10.569 83.557 12.297 83.557C12.8265 83.5517 13.3496 83.4393 13.8345 83.2265C14.3195 83.0138 14.7564 82.7051 15.119 82.319L15.034 83.68ZM24.418 84.44C24.491 83.85 24.516 82.281 24.516 81.483V80.455H20.016V82.675C20.016 83.14 20.026 84.098 20.064 84.441H18.702C18.763 83.851 18.789 82.281 18.789 81.484V78.774C18.789 77.989 18.763 76.408 18.702 75.819C19.1568 75.825 19.6116 75.8043 20.064 75.757C20.027 76.113 20.015 77.094 20.015 77.573V79.449H24.516V78.774C24.516 77.989 24.491 76.408 24.418 75.819C24.8808 75.8246 25.3435 75.8039 25.804 75.757C25.754 76.113 25.742 77.094 25.742 77.573V82.674C25.742 83.14 25.754 84.098 25.803 84.44H24.418ZM30.196 84.44C30.259 83.85 30.282 82.281 30.282 81.483V78.773C30.282 77.988 30.259 76.408 30.196 75.818C30.6508 75.824 31.1056 75.8033 31.558 75.756C31.522 76.112 31.508 77.093 31.508 77.572V82.674C31.508 83.139 31.522 84.097 31.558 84.44H30.196ZM42.34 83.68C41.5417 84.3161 40.5507 84.6617 39.53 84.66C38.9639 84.6652 38.4025 84.5574 37.8787 84.3428C37.3549 84.1282 36.8792 83.8111 36.4795 83.4102C36.0798 83.0094 35.7642 82.5327 35.5512 82.0082C35.3382 81.4838 35.232 80.922 35.239 80.356C35.2127 79.7444 35.3102 79.1337 35.5255 78.5607C35.7408 77.9876 36.0695 77.4639 36.492 77.0209C36.9145 76.5778 37.4221 76.2246 37.9843 75.9824C38.5465 75.7401 39.1518 75.6138 39.764 75.611C40.6715 75.6113 41.5587 75.8799 42.314 76.383L41.97 77.511C41.3191 76.9997 40.5167 76.7193 39.689 76.714C39.2537 76.7149 38.8232 76.8046 38.4238 76.9776C38.0244 77.1506 37.6645 77.4032 37.3661 77.72C37.0677 78.0369 36.8371 78.4113 36.6883 78.8203C36.5396 79.2294 36.4758 79.6645 36.501 80.099C36.501 82.342 37.875 83.556 39.603 83.556C40.1324 83.5506 40.6552 83.4381 41.14 83.2253C41.6248 83.0126 42.0616 82.7039 42.424 82.318L42.34 83.68ZM51.98 84.539L50.84 81.999H47.223L47.187 82.099C46.867 82.834 46.524 83.679 46.217 84.441H44.868L47.787 78.161C48.265 77.131 48.584 76.408 48.853 75.697L49.173 75.61L52.116 81.926C52.461 82.687 52.938 83.68 53.33 84.441L51.98 84.539ZM50.387 80.994L49.026 77.94L47.677 80.994H50.387ZM61.93 80.392C62.419 80.386 62.661 80.374 63.2 80.346C63.139 80.811 63.157 82.012 63.157 82.81V83.753C62.2609 84.3723 61.1909 84.6904 60.102 84.661C58.943 84.6768 57.8251 84.2325 56.993 83.4256C56.161 82.6187 55.6827 81.5149 55.663 80.356C55.6437 79.7338 55.7508 79.1141 55.9778 78.5345C56.2048 77.9548 56.5471 77.4272 56.9838 76.9836C57.4205 76.54 57.9426 76.1895 58.5186 75.9534C59.0946 75.7173 59.7125 75.6005 60.335 75.61C61.2965 75.6107 62.2391 75.8779 63.058 76.382L62.714 77.51C61.9986 76.9966 61.1415 76.7181 60.261 76.713C59.8139 76.6953 59.3681 76.7712 58.9521 76.9358C58.5361 77.1004 58.159 77.3501 57.8451 77.6689C57.5311 77.9876 57.2872 78.3684 57.1289 78.7869C56.9707 79.2053 56.9015 79.6523 56.926 80.099C56.8844 80.5458 56.9382 80.9963 57.084 81.4206C57.2297 81.845 57.464 82.2335 57.7714 82.5604C58.0787 82.8873 58.452 83.1452 58.8666 83.3168C59.2812 83.4884 59.7275 83.57 60.176 83.556C60.7924 83.5798 61.4047 83.4448 61.954 83.164V81.67C61.954 81.485 61.954 81.155 61.93 80.934V80.392ZM75.09 79.915C75.1279 80.5213 75.0418 81.129 74.8369 81.7009C74.632 82.2727 74.3126 82.7968 73.8982 83.2411C73.4838 83.6853 72.9832 84.0403 72.4269 84.2845C71.8707 84.5286 71.2704 84.6567 70.663 84.661C70.1024 84.6643 69.547 84.5543 69.03 84.3375C68.513 84.1208 68.0452 83.8018 67.6546 83.3997C67.264 82.9976 66.9586 82.5207 66.757 81.9977C66.5553 81.4746 66.4614 80.9162 66.481 80.356C66.4429 79.7496 66.5289 79.1418 66.7338 78.5697C66.9387 77.9977 67.2582 77.4735 67.6727 77.0293C68.0872 76.585 68.5881 76.23 69.1445 75.9859C69.701 75.7419 70.3014 75.614 70.909 75.61C71.4694 75.6067 72.0248 75.7167 72.5417 75.9334C73.0586 76.1501 73.5264 76.469 73.917 76.8709C74.3076 77.2729 74.6129 77.7497 74.8147 78.2726C75.0164 78.7955 75.1104 79.3538 75.091 79.914M73.828 80.111C73.828 77.94 72.502 76.651 70.773 76.651C68.959 76.651 67.745 78.247 67.745 80.16C67.745 82.33 69.068 83.62 70.798 83.62C72.614 83.62 73.828 82.024 73.828 80.111Z" fill="white"/>
</g>
<defs>
<clipPath id="clip0_1_755">
<rect width="92" height="92" fill="white" transform="translate(0 0.5)"/>
</clipPath>
</defs>
</svg>
