<svg xmlns="http://www.w3.org/2000/svg" width="92" height="92" viewBox="0 0 92 92" fill="none">
  <g clip-path="url(#clip0_91_478)">
    <path d="M91 1V91H1V1H91ZM92 0H0V92H92V0Z" fill="#767676"/>
    <path d="M14.445 56.001L13.305 53.461H9.68703L9.65103 53.559C9.33103 54.297 8.98803 55.142 8.68103 55.902H7.33203L10.25 49.622C10.728 48.592 11.048 47.87 11.317 47.159L11.637 47.072L14.58 53.388C14.925 54.148 15.402 55.143 15.794 55.902L14.445 56.001ZM12.851 52.455L11.49 49.403L10.141 52.455H12.851ZM23.645 55.989L21.438 52.517H20.1V54.137C20.1 54.614 20.111 55.559 20.149 55.902H18.788C18.849 55.313 18.873 53.742 18.873 52.946V50.236C18.873 49.451 18.849 47.869 18.788 47.28C19.229 47.28 20.479 47.232 21.044 47.22C23.203 47.183 24.391 48.373 24.355 49.733C24.3495 50.2851 24.1732 50.822 23.8504 51.27C23.5276 51.7179 23.074 52.055 22.552 52.235L23.804 54.075C24.134 54.541 24.81 55.485 25.091 55.828L23.645 55.989ZM20.101 51.5H21.339C21.5621 51.5203 21.7869 51.4939 21.9991 51.4223C22.2113 51.3507 22.4062 51.2355 22.5713 51.0843C22.7364 50.933 22.8681 50.7489 22.958 50.5437C23.0478 50.3386 23.0938 50.1169 23.093 49.893C23.093 48.838 22.455 48.288 21.168 48.288C20.775 48.288 20.432 48.299 20.112 48.323C20.102 48.569 20.102 48.851 20.102 49.034L20.101 51.5ZM34.243 48.323C33.298 48.311 32.477 48.299 31.385 48.299C31.372 48.557 31.372 48.875 31.372 49.071V54.137C31.372 54.614 31.385 55.559 31.422 55.902H30.062C30.122 55.313 30.146 53.743 30.146 52.947V50.286C30.146 49.783 30.135 48.986 30.11 48.299C29.018 48.299 28.16 48.311 27.216 48.323C27.2518 47.9521 27.2682 47.5796 27.265 47.207C29.6233 47.2893 31.9837 47.2893 34.342 47.207C34.2824 47.5762 34.2493 47.9491 34.243 48.323ZM8.65603 69.78C8.71903 69.195 8.74203 67.634 8.74203 66.842V64.146C8.74203 63.366 8.71903 61.794 8.65603 61.208C9.1108 61.214 9.56555 61.194 10.018 61.148C9.98103 61.501 9.96903 62.476 9.96903 62.952V68.025C9.96903 68.487 9.98103 69.44 10.018 69.781L8.65603 69.78ZM21.67 62.951L21.585 68.098C21.585 68.574 21.573 69.562 21.609 69.903L21.291 69.988L15.661 63.561V68.024C15.661 68.5 15.673 69.44 15.711 69.78H14.361C14.435 69.195 14.496 67.634 14.508 66.841L14.558 63.904C14.57 63.123 14.57 61.671 14.508 61.086L14.84 61L20.519 67.524V64.146C20.519 63.366 20.494 61.794 20.421 61.208C20.8715 61.2134 21.3219 61.1934 21.77 61.148C21.72 61.501 21.683 62.475 21.67 62.951ZM27.633 70C26.7788 69.9763 25.9458 69.728 25.218 69.28L25.291 67.988C25.9744 68.5486 26.8227 68.8697 27.706 68.902C28.626 68.902 29.276 68.452 29.276 67.548C29.276 65.843 25.561 65.757 25.561 63.512C25.5673 63.1671 25.6432 62.827 25.7841 62.5121C25.925 62.1972 26.128 61.914 26.3809 61.6794C26.6339 61.4449 26.9316 61.2638 27.2562 61.1471C27.5808 61.0303 27.9256 60.9803 28.27 61C28.9904 60.9952 29.694 61.2174 30.281 61.635L29.876 62.708C29.4014 62.3378 28.8233 62.1246 28.222 62.098C27.325 62.098 26.786 62.575 26.786 63.343C26.786 64.867 30.49 64.94 30.49 67.379C30.4927 67.7443 30.4188 68.1062 30.273 68.4412C30.1272 68.7762 29.9128 69.0769 29.6435 69.3239C29.3743 69.5709 29.0563 69.7587 28.71 69.8751C28.3637 69.9916 27.9968 70.0341 27.633 70ZM40.229 62.244C39.2768 62.2294 38.3244 62.2217 37.372 62.221C37.358 62.476 37.358 62.793 37.358 62.988V68.025C37.358 68.5 37.371 69.439 37.408 69.781H36.048C36.108 69.195 36.132 67.634 36.132 66.841V64.196C36.132 63.696 36.121 62.903 36.095 62.221C35.005 62.221 34.145 62.231 33.202 62.244C33.2378 61.8754 33.2541 61.5053 33.251 61.135C34.367 61.171 35.41 61.195 36.746 61.195C38.082 61.195 39.198 61.171 40.327 61.135C40.2683 61.5019 40.2355 61.8725 40.229 62.244ZM43.554 69.78C43.617 69.195 43.641 67.634 43.641 66.842V64.146C43.641 63.366 43.617 61.794 43.554 61.208C44.0088 61.214 44.4635 61.194 44.916 61.148C44.879 61.501 44.867 62.476 44.867 62.952V68.025C44.867 68.487 44.879 69.44 44.916 69.781L43.554 69.78ZM55.097 62.244C54.152 62.231 53.331 62.221 52.239 62.221C52.226 62.476 52.226 62.793 52.226 62.988V68.025C52.226 68.5 52.239 69.439 52.276 69.781H50.916C50.976 69.195 51 67.634 51 66.841V64.196C51 63.696 50.988 62.903 50.964 62.221C49.872 62.221 49.014 62.231 48.07 62.244C48.1058 61.8754 48.1221 61.5053 48.119 61.135C49.234 61.171 50.278 61.195 51.614 61.195C52.95 61.195 54.066 61.171 55.195 61.135C55.1358 61.5018 55.103 61.8725 55.097 62.244ZM65.915 61.22L63.168 67.465C62.715 68.5 62.42 69.207 62.175 69.914L61.856 70L59.11 63.732C58.745 62.8897 58.3602 62.0562 57.956 61.232L59.306 61.135L61.991 67.537L63.647 63.55C63.941 62.83 64.261 61.989 64.543 61.22H65.915ZM75.164 62.244C74.219 62.231 73.399 62.221 72.307 62.221C72.294 62.476 72.294 62.793 72.294 62.988V68.025C72.294 68.5 72.307 69.439 72.344 69.781H70.983C71.044 69.195 71.068 67.634 71.068 66.841V64.196C71.068 63.696 71.056 62.903 71.031 62.221C69.94 62.221 69.081 62.231 68.138 62.244C68.1734 61.8754 68.1895 61.5052 68.186 61.135C69.302 61.171 70.346 61.195 71.682 61.195C73.018 61.195 74.133 61.171 75.262 61.135C75.203 61.5019 75.1703 61.8725 75.164 62.244ZM83.826 69.83C83.089 69.78 82.182 69.768 81.311 69.768C80.44 69.768 79.52 69.781 78.797 69.829C78.857 69.244 78.883 67.671 78.883 66.891V64.073C78.883 63.282 78.858 61.72 78.797 61.135C80.4191 61.2147 82.044 61.2147 83.666 61.135C83.6065 61.4938 83.5731 61.8564 83.566 62.22C82.844 62.208 82.096 62.196 81.225 62.196C80.857 62.196 80.489 62.196 80.133 62.208C80.109 62.428 80.109 62.744 80.109 62.928V64.769H83.089C83.0631 65.1017 83.0508 65.4353 83.052 65.769H80.11V68.025C80.11 68.207 80.11 68.537 80.134 68.755C80.489 68.755 80.858 68.768 81.226 68.768C82.219 68.768 83.078 68.756 83.911 68.732C83.8619 69.0961 83.8335 69.4627 83.826 69.83ZM15.034 83.18C14.2361 83.8161 13.2455 84.1617 12.225 84.16C11.659 84.1652 11.0976 84.0574 10.5737 83.8428C10.0499 83.6282 9.57422 83.3111 9.17455 82.9102C8.77488 82.5094 8.45927 82.0327 8.24625 81.5082C8.03323 80.9838 7.92708 80.422 7.93403 79.856C7.90779 79.2445 8.00521 78.6339 8.22046 78.0609C8.43571 77.4879 8.76436 76.9642 9.18674 76.5212C9.60912 76.0782 10.1165 75.725 10.6786 75.4826C11.2407 75.2403 11.8459 75.1139 12.458 75.111C13.3655 75.1114 14.2527 75.38 15.008 75.883L14.665 77.011C14.0144 76.4999 13.2124 76.2196 12.385 76.214C11.9495 76.2146 11.5187 76.3041 11.119 76.4771C10.7193 76.65 10.3591 76.9027 10.0605 77.2197C9.76183 77.5367 9.53104 77.9113 9.38223 78.3206C9.23342 78.7299 9.16972 79.1652 9.19503 79.6C9.19503 81.843 10.569 83.057 12.297 83.057C12.8266 83.0517 13.3496 82.9393 13.8346 82.7265C14.3196 82.5138 14.7565 82.2051 15.119 81.819L15.034 83.18ZM24.418 83.94C24.491 83.35 24.516 81.781 24.516 80.983V79.955H20.016V82.175C20.016 82.64 20.026 83.598 20.064 83.941H18.702C18.763 83.351 18.789 81.781 18.789 80.984V78.274C18.789 77.489 18.763 75.908 18.702 75.319C19.1569 75.325 19.6116 75.3043 20.064 75.257C20.027 75.613 20.015 76.594 20.015 77.073V78.949H24.516V78.274C24.516 77.489 24.491 75.908 24.418 75.319C24.8808 75.3246 25.3436 75.3039 25.804 75.257C25.754 75.613 25.742 76.594 25.742 77.073V82.174C25.742 82.64 25.754 83.598 25.803 83.94H24.418ZM30.196 83.94C30.259 83.35 30.282 81.781 30.282 80.983V78.273C30.282 77.488 30.259 75.908 30.196 75.318C30.6509 75.324 31.1056 75.3033 31.558 75.256C31.522 75.612 31.508 76.593 31.508 77.072V82.174C31.508 82.639 31.522 83.597 31.558 83.94H30.196ZM42.34 83.18C41.5417 83.8161 40.5508 84.1617 39.53 84.16C38.964 84.1652 38.4026 84.0574 37.8787 83.8428C37.3549 83.6282 36.8792 83.3111 36.4795 82.9102C36.0799 82.5094 35.7643 82.0327 35.5513 81.5082C35.3382 80.9838 35.2321 80.422 35.239 79.856C35.2128 79.2444 35.3102 78.6337 35.5255 78.0607C35.7409 77.4876 36.0696 76.9639 36.4921 76.5209C36.9146 76.0778 37.4221 75.7246 37.9843 75.4824C38.5465 75.2401 39.1519 75.1138 39.764 75.111C40.6715 75.1113 41.5587 75.3799 42.314 75.883L41.97 77.011C41.3192 76.4997 40.5167 76.2193 39.689 76.214C39.2538 76.2149 38.8233 76.3046 38.4239 76.4776C38.0245 76.6506 37.6646 76.9032 37.3662 77.22C37.0678 77.5369 36.8371 77.9113 36.6884 78.3203C36.5396 78.7294 36.4759 79.1645 36.501 79.599C36.501 81.842 37.875 83.056 39.603 83.056C40.1324 83.0506 40.6553 82.9381 41.1401 82.7253C41.6249 82.5126 42.0616 82.2039 42.424 81.818L42.34 83.18ZM51.98 84.039L50.84 81.499H47.223L47.187 81.599C46.867 82.334 46.524 83.179 46.217 83.941H44.868L47.787 77.661C48.265 76.631 48.584 75.908 48.853 75.197L49.173 75.11L52.116 81.426C52.461 82.187 52.938 83.18 53.33 83.941L51.98 84.039ZM50.387 80.494L49.026 77.44L47.677 80.494H50.387ZM61.93 79.892C62.419 79.886 62.661 79.874 63.2 79.846C63.139 80.311 63.157 81.512 63.157 82.31V83.253C62.2609 83.8723 61.1909 84.1904 60.102 84.161C58.9431 84.1768 57.8251 83.7325 56.9931 82.9256C56.161 82.1187 55.6828 81.0149 55.663 79.856C55.6438 79.2338 55.7509 78.6141 55.9779 78.0345C56.2049 77.4548 56.5471 76.9272 56.9838 76.4836C57.4205 76.04 57.9427 75.6895 58.5187 75.4534C59.0947 75.2173 59.7126 75.1005 60.335 75.11C61.2966 75.1107 62.2392 75.3779 63.058 75.882L62.714 77.01C61.9987 76.4966 61.1415 76.2181 60.261 76.213C59.814 76.1953 59.3682 76.2712 58.9522 76.4358C58.5361 76.6004 58.1591 76.8501 57.8451 77.1689C57.5312 77.4876 57.2873 77.8684 57.129 78.2869C56.9707 78.7053 56.9016 79.1523 56.926 79.599C56.8844 80.0458 56.9383 80.4963 57.084 80.9206C57.2298 81.345 57.4641 81.7335 57.7714 82.0604C58.0788 82.3873 58.4521 82.6452 58.8667 82.8168C59.2812 82.9884 59.7276 83.07 60.176 83.056C60.7925 83.0798 61.4047 82.9448 61.954 82.664V81.17C61.954 80.985 61.954 80.655 61.93 80.434V79.892ZM75.09 79.415C75.128 80.0213 75.0419 80.629 74.837 81.2009C74.6321 81.7727 74.3126 82.2968 73.8983 82.7411C73.4839 83.1853 72.9833 83.5403 72.427 83.7845C71.8707 84.0286 71.2705 84.1567 70.663 84.161C70.1025 84.1643 69.547 84.0543 69.03 83.8375C68.5131 83.6208 68.0452 83.3018 67.6546 82.8997C67.264 82.4976 66.9587 82.0207 66.757 81.4977C66.5554 80.9746 66.4615 80.4162 66.481 79.856C66.4429 79.2496 66.529 78.6418 66.7339 78.0697C66.9388 77.4977 67.2583 76.9735 67.6728 76.5293C68.0873 76.085 68.5881 75.73 69.1446 75.4859C69.701 75.2419 70.3014 75.114 70.909 75.11C71.4695 75.1067 72.0249 75.2167 72.5418 75.4334C73.0587 75.6501 73.5265 75.969 73.9171 76.3709C74.3077 76.7729 74.613 77.2497 74.8147 77.7726C75.0165 78.2955 75.1104 78.8538 75.091 79.414M73.828 79.611C73.828 77.44 72.502 76.151 70.773 76.151C68.959 76.151 67.745 77.747 67.745 79.66C67.745 81.83 69.068 83.12 70.798 83.12C72.614 83.12 73.828 81.524 73.828 79.611Z" fill="#767676"/>
  </g>
  <defs>
    <clipPath id="clip0_91_478">
      <rect width="92" height="92" fill="white"/>
    </clipPath>
  </defs>
</svg>